<?xml version="1.0" encoding="UTF-8" standalone="no"?>
<svg
   xmlns:dc="http://purl.org/dc/elements/1.1/"
   xmlns:cc="http://creativecommons.org/ns#"
   xmlns:rdf="http://www.w3.org/1999/02/22-rdf-syntax-ns#"
   xmlns:svg="http://www.w3.org/2000/svg"
   xmlns="http://www.w3.org/2000/svg"
   xmlns:sodipodi="http://sodipodi.sourceforge.net/DTD/sodipodi-0.dtd"
   xmlns:inkscape="http://www.inkscape.org/namespaces/inkscape"
   width="334pt"
   height="132pt"
   viewBox="0 0 334 132"
   version="1.1"
   id="svg2"
   inkscape:version="0.48.4 r9939"
   sodipodi:docname="logo.svg">
  <metadata
     id="metadata87">
    <rdf:RDF>
      <cc:Work
         rdf:about="">
        <dc:format>image/svg+xml</dc:format>
        <dc:type
           rdf:resource="http://purl.org/dc/dcmitype/StillImage" />
        <dc:title></dc:title>
      </cc:Work>
    </rdf:RDF>
  </metadata>
  <defs
     id="defs85" />
  <sodipodi:namedview
     pagecolor="#ffffff"
     bordercolor="#666666"
     borderopacity="1"
     objecttolerance="10"
     gridtolerance="10"
     guidetolerance="10"
     inkscape:pageopacity="0"
     inkscape:pageshadow="2"
     inkscape:window-width="1315"
     inkscape:window-height="744"
     id="namedview83"
     showgrid="false"
     inkscape:zoom="2.7976048"
     inkscape:cx="147.58368"
     inkscape:cy="50.926765"
     inkscape:window-x="51"
     inkscape:window-y="24"
     inkscape:window-maximized="1"
     inkscape:current-layer="#66cdf5ff" />
  <g
     id="#66cdf5ff">
    <path
       fill="#66cdf5"
       opacity="1.00"
       d=" M 47.31 26.26 C 58.54 19.86 72.59 18.75 84.69 23.31 C 96.09 27.45 105.55 36.53 110.27 47.69 C 114.93 58.61 114.94 71.35 110.39 82.31 C 109.70 82.40 108.34 82.60 107.65 82.70 C 108.94 83.80 110.20 84.95 111.48 86.06 C 110.90 85.80 109.74 85.27 109.16 85.00 C 107.23 88.08 105.75 91.68 102.82 93.95 C 95.68 96.05 88.04 94.67 80.96 93.03 C 83.91 87.74 85.85 81.96 86.93 76.00 C 87.55 73.57 87.62 70.50 90.13 69.17 C 96.08 65.13 101.21 59.80 104.52 53.39 C 106.05 50.29 107.19 46.58 105.80 43.23 C 103.84 39.60 98.51 40.61 95.97 43.07 C 89.14 49.51 87.01 59.07 85.47 67.96 C 85.43 69.86 83.35 70.31 81.95 70.94 C 78.49 72.07 74.71 73.08 71.09 72.17 C 68.45 71.72 67.37 68.22 69.06 66.22 C 72.14 61.29 78.43 60.30 82.29 56.26 C 79.07 56.57 76.11 57.90 73.41 59.59 C 70.77 58.00 67.98 56.55 64.91 56.08 C 51.42 53.91 37.76 56.63 24.80 60.35 C 26.31 46.24 34.93 33.17 47.31 26.26 Z"
       id="path26" />
    <path
       fill="#66cdf5"
       opacity="1.00"
       d=" M 98.39 45.45 C 99.77 44.42 101.56 42.40 103.38 43.60 C 104.69 46.33 102.95 49.31 101.75 51.76 C 98.39 57.51 94.32 62.98 89.00 67.07 C 90.77 59.46 92.60 51.12 98.39 45.45 Z"
       id="path28" />
    <path
       fill="#66cdf5"
       opacity="1.00"
       d=" M 122.33 83.04 C 124.99 83.12 128.12 82.65 130.17 84.76 C 133.41 87.53 133.14 93.19 129.67 95.65 C 127.61 97.36 124.79 96.84 122.32 96.95 C 122.25 92.32 122.25 87.68 122.33 83.04 M 124.50 84.86 C 124.45 88.28 124.45 91.69 124.50 95.11 C 127.21 94.65 130.54 93.33 130.31 89.99 C 130.51 86.67 127.21 85.31 124.50 84.86 Z"
       id="path30" />
    <path
       fill="#66cdf5"
       opacity="1.00"
       d=" M 148.29 83.66 C 148.72 83.41 149.59 82.89 150.03 82.64 C 150.10 84.19 150.15 85.75 150.19 87.32 C 154.31 85.68 159.04 89.56 157.22 93.88 C 155.88 97.83 151.30 96.66 148.11 96.74 C 148.17 92.38 147.71 87.99 148.29 83.66 M 151.53 89.57 C 148.48 91.18 151.30 96.53 154.24 94.33 C 157.05 92.66 154.38 87.69 151.53 89.57 Z"
       id="path32" />
    <path
       fill="#66cdf5"
       opacity="1.00"
       d=" M 161.46 83.73 C 161.87 83.41 162.69 82.79 163.10 82.48 C 163.52 87.48 163.52 92.52 163.10 97.53 C 162.69 97.22 161.87 96.59 161.46 96.28 C 160.96 92.14 160.96 87.87 161.46 83.73 Z"
       id="path34" />
    <path
       fill="#66cdf5"
       opacity="1.00"
       d=" M 222.90 87.38 C 223.14 85.56 222.57 83.08 225.01 82.65 C 225.24 87.36 225.18 92.07 225.10 96.77 C 222.88 96.70 220.59 97.11 218.41 96.52 C 215.31 95.13 214.74 90.46 217.29 88.26 C 218.74 86.63 221.01 87.30 222.90 87.38 M 219.44 89.43 C 216.19 90.62 218.38 96.23 221.55 94.53 C 224.52 93.21 222.47 87.94 219.44 89.43 Z"
       id="path36" />
    <path
       fill="#66cdf5"
       opacity="1.00"
       d=" M 235.35 83.01 C 237.79 83.16 240.59 82.66 242.64 84.33 C 246.14 86.77 246.40 92.44 243.18 95.23 C 241.14 97.34 238.01 96.88 235.35 97.00 C 235.24 92.34 235.24 87.67 235.35 83.01 M 237.51 84.86 C 237.45 88.27 237.44 91.69 237.50 95.10 C 240.21 94.65 243.52 93.33 243.31 90.00 C 243.52 86.68 240.22 85.30 237.51 84.86 Z"
       id="path38" />
    <path
       fill="#66cdf5"
       opacity="1.00"
       d=" M 285.46 83.28 C 286.72 81.80 288.59 84.21 287.36 85.38 C 286.09 86.83 284.23 84.46 285.46 83.28 Z"
       id="path40" />
    <path
       fill="#66cdf5"
       opacity="1.00"
       d=" M 300.49 83.24 C 301.80 81.82 303.59 84.27 302.33 85.41 C 301.02 86.82 299.23 84.39 300.49 83.24 Z"
       id="path42" />
    <path
       fill="#66cdf5"
       opacity="1.00"
       d=" M 136.33 94.61 C 134.22 91.38 137.05 86.37 141.00 87.03 C 143.91 87.22 144.93 90.17 145.26 92.60 C 142.63 92.65 140.00 92.76 137.37 92.92 C 139.20 95.35 141.99 94.81 144.58 94.29 C 143.21 97.78 137.99 97.87 136.33 94.61 M 137.27 90.86 C 139.43 90.94 141.60 90.93 143.77 90.84 C 142.55 90.21 141.52 88.98 140.07 88.93 C 139.09 89.50 138.15 90.14 137.27 90.86 Z"
       id="path44" />
    <path
       fill="#66cdf5"
       opacity="1.00"
       d=" M 165.90 86.41 C 168.41 87.69 167.41 90.73 167.87 92.97 C 167.56 95.03 170.81 95.59 171.44 93.72 C 171.88 91.34 171.81 88.91 172.02 86.51 C 174.87 87.82 173.78 91.46 173.60 93.91 C 173.03 97.09 168.38 98.13 166.53 95.45 C 164.88 92.76 165.82 89.37 165.90 86.41 Z"
       id="path46" />
    <path
       fill="#66cdf5"
       opacity="1.00"
       d=" M 177.86 87.25 C 180.02 87.28 182.26 87.07 184.30 87.94 C 183.05 88.81 181.70 89.55 180.59 90.59 C 179.47 92.82 180.90 96.43 177.96 97.41 C 177.78 94.02 177.80 90.63 177.86 87.25 Z"
       id="path48" />
    <path
       fill="#66cdf5"
       opacity="1.00"
       d=" M 193.65 87.65 C 195.76 86.68 198.19 87.11 200.40 87.47 C 200.74 90.54 200.59 93.63 200.59 96.70 C 198.49 96.74 196.36 97.02 194.28 96.64 C 190.57 95.35 190.26 89.52 193.65 87.65 M 195.23 89.27 C 193.37 89.77 192.83 92.47 194.00 93.88 C 195.03 95.57 198.06 94.90 198.33 92.95 C 199.15 91.08 197.30 88.54 195.23 89.27 Z"
       id="path50" />
    <path
       fill="#66cdf5"
       opacity="1.00"
       d=" M 204.37 87.16 C 206.96 87.32 210.59 86.30 212.00 89.23 C 212.90 91.95 212.34 94.87 212.11 97.66 C 209.75 96.20 210.64 93.23 210.20 90.95 C 210.48 88.97 207.04 88.39 206.71 90.40 C 206.26 92.76 206.30 95.19 206.05 97.58 C 202.74 95.28 204.84 90.53 204.37 87.16 Z"
       id="path52" />
    <path
       fill="#66cdf5"
       opacity="1.00"
       d=" M 248.73 93.88 C 247.07 90.26 250.93 85.69 254.77 87.27 C 257.11 87.97 257.55 90.52 258.08 92.55 C 255.41 92.64 252.75 92.77 250.10 92.95 C 251.93 95.37 254.77 94.74 257.33 94.30 C 255.88 98.13 249.90 97.71 248.73 93.88 M 250.02 90.85 C 252.20 90.93 254.39 90.93 256.57 90.84 C 254.61 88.92 251.85 88.40 250.02 90.85 Z"
       id="path54" />
    <path
       fill="#66cdf5"
       opacity="1.00"
       d=" M 261.06 87.20 C 263.67 87.32 267.41 86.26 268.77 89.30 C 269.56 91.93 269.12 94.73 269.06 97.43 C 266.22 96.52 267.52 93.17 266.96 90.97 C 267.20 89.05 264.09 88.45 263.43 90.24 C 263.04 92.42 263.11 94.65 263.04 96.86 C 262.55 96.84 261.58 96.81 261.09 96.79 C 261.06 93.59 261.05 90.40 261.06 87.20 Z"
       id="path56" />
    <path
       fill="#66cdf5"
       opacity="1.00"
       d=" M 275.40 87.44 C 278.47 85.79 282.11 88.75 281.96 92.01 C 282.15 95.26 278.43 98.21 275.38 96.55 C 271.72 94.93 271.75 89.06 275.40 87.44 M 276.44 89.37 C 273.44 90.24 274.74 95.76 277.91 94.68 C 281.30 94.15 279.84 87.87 276.44 89.37 Z"
       id="path58" />
    <path
       fill="#66cdf5"
       opacity="1.00"
       d=" M 285.24 91.97 C 285.31 89.96 284.92 87.44 287.12 86.38 C 287.58 90.11 287.58 93.89 287.12 97.62 C 284.89 96.55 285.32 93.99 285.24 91.97 Z"
       id="path60" />
    <path
       fill="#66cdf5"
       opacity="1.00"
       d=" M 290.04 89.92 C 290.56 85.97 296.55 86.27 297.51 89.86 C 295.59 89.61 293.65 89.47 291.73 89.26 C 293.62 90.54 295.86 91.37 297.44 93.05 C 298.19 97.95 290.23 98.23 289.40 93.79 C 291.36 94.31 293.38 94.55 295.36 95.00 C 294.46 92.37 290.43 92.76 290.04 89.92 Z"
       id="path62" />
    <path
       fill="#66cdf5"
       opacity="1.00"
       d=" M 300.56 87.56 C 300.96 87.39 301.75 87.05 302.14 86.88 C 302.73 90.44 302.51 94.06 302.12 97.62 C 298.94 95.41 300.50 90.81 300.56 87.56 Z"
       id="path64" />
    <path
       fill="#66cdf5"
       opacity="1.00"
       d=" M 305.86 87.14 C 308.46 87.28 312.20 86.32 313.53 89.33 C 314.24 91.74 313.89 94.30 313.97 96.77 C 313.48 96.79 312.51 96.83 312.02 96.85 C 311.53 94.36 313.26 89.05 309.30 89.17 C 306.32 90.93 309.78 96.22 305.97 97.42 C 305.78 94.00 305.80 90.57 305.86 87.14 Z"
       id="path66" />
    <path
       fill="#66cdf5"
       opacity="1.00"
       d=" M 320.26 87.36 C 322.25 86.86 324.37 87.05 326.37 87.49 C 326.68 91.01 326.94 94.68 326.10 98.15 C 324.91 101.39 320.26 101.97 318.49 98.90 C 319.91 98.79 321.33 98.70 322.75 98.63 C 323.24 98.18 324.20 97.29 324.69 96.84 C 322.62 96.68 320.02 97.41 318.53 95.51 C 316.15 93.16 317.01 88.44 320.26 87.36 M 321.23 89.28 C 319.31 89.75 318.67 92.54 320.00 93.92 C 320.90 95.19 323.03 95.11 323.86 93.79 C 325.47 92.02 323.67 88.45 321.23 89.28 Z"
       id="path68" />
  </g>
  <g
     id="#1b75bbff">
    <path
       fill="#1b75bb"
       opacity="1.00"
       d=" M 24.15 63.32 C 34.40 60.02 45.11 57.19 55.97 57.72 C 61.28 57.64 66.78 58.23 71.55 60.73 C 69.26 63.38 65.57 66.04 66.32 70.02 C 66.25 72.10 67.84 73.71 69.76 74.23 C 74.80 75.74 80.03 73.97 84.74 72.14 C 83.35 79.02 81.66 85.89 78.64 92.25 C 72.53 88.81 67.05 84.27 60.67 81.32 C 58.11 79.84 54.64 81.13 54.04 84.11 C 51.69 91.39 58.05 98.59 65.13 99.48 C 70.31 100.47 75.15 97.73 79.09 94.67 C 89.00 97.73 100.67 99.85 110.02 94.08 C 113.09 92.43 113.60 88.89 113.86 85.76 C 114.61 88.27 115.40 91.19 113.45 93.40 C 109.63 98.19 103.05 98.46 97.57 99.76 C 93.15 102.70 88.72 105.79 83.58 107.35 C 70.07 112.03 54.38 109.60 42.90 101.09 C 37.90 97.48 33.92 92.67 30.38 87.66 C 26.21 80.24 24.94 71.68 24.15 63.32 Z"
       id="path71"
       style="fill:#ffffff" />
    <path
       d="m 170.72186,59.214407 c 1.16,0.14 2.28,0.39 3.38,0.75 0.66,5.08 -0.47,10.28 0.59,15.3 5.93,2.26 12.57,0.43 18.78,1.2 0.03,0.71 0.1,2.12 0.14,2.83 -5.71,0.09 -11.45,0.36 -17.15,-0.13 -2.59,-0.2 -5.87,-1.62 -5.81,-4.67 -0.27,-5.09 -0.12,-10.19 0.07,-15.28 z"
       id="path73"
       inkscape:connector-curvature="0"
       style="fill:#ffffff" />
    <path
       d="m 199.98186,59.924407 c 2.88,-0.69 5.86,-0.49 8.8,-0.57 0.04,0.75 0.13,2.25 0.18,2.99 -3.22,0.03 -6.46,0.19 -9.6,0.89 -0.07,1.39 -0.12,2.78 -0.15,4.17 6.41,0.06 12.82,-0.14 19.22,0.15 0,0.68 0,2.05 0,2.74 -6.43,0.38 -12.87,0.1 -19.31,0.21 0.49,1.83 -0.63,5.08 1.97,5.45 5.72,0.89 11.56,0.02 17.32,0.54 -0.03,0.69 -0.09,2.07 -0.12,2.77 -5.25,0.18 -10.52,0.28 -15.78,0.04 -2.44,-0.21 -5.37,-0.89 -6.6,-3.26 -0.69,-3.85 -0.43,-7.82 -0.25,-11.71 -0.03,-2.38 2.25,-3.88 4.32,-4.41 z"
       id="path75"
       inkscape:connector-curvature="0"
       style="fill:#ffffff" />
    <path
       d="m 220.61186,62.544407 c 2.9,-3.99 8.5,-3.03 12.8,-3.05 0.03,0.69 0.11,2.06 0.14,2.75 -3.26,0.13 -6.53,0.28 -9.71,1.03 -0.05,1.37 -0.1,2.75 -0.15,4.12 6.38,0.03 12.76,-0.02 19.14,0.04 -0.01,0.76 -0.02,2.27 -0.03,3.02 -6.39,0.06 -12.78,0 -19.17,0.05 0.35,1.95 -0.59,5.18 2.19,5.53 5.62,0.68 11.31,0.1 16.97,0.32 -0.02,0.75 -0.04,2.24 -0.06,2.99 -5.42,0 -10.86,0.28 -16.27,-0.09 -2.76,-0.22 -6.48,-1.64 -6.35,-4.96 0.01,-3.89 -0.62,-7.98 0.5,-11.75 z"
       id="path77"
       inkscape:connector-curvature="0"
       style="fill:#ffffff" />
    <path
       d="m 245.05186,60.764407 c 0.25,-2.07 3.31,-1.53 4.21,-0.16 4.46,4.85 8.57,10.02 12.94,14.95 4.24,-4.95 8.27,-10.09 12.63,-14.94 0.92,-1.41 3.89,-1.93 4.19,0.2 0.33,5.97 0.29,12.01 0.01,17.99 -1.09,0.4 -2.23,0.67 -3.4,0.8 -0.26,-4.81 -0.14,-9.64 -0.16,-14.46 -3.74,4.34 -7.19,8.93 -11.04,13.18 -1.11,1.5 -3.54,1.43 -4.64,-0.05 -3.89,-4.25 -7.4,-8.85 -11.19,-13.19 -0.02,4.78 0.07,9.55 -0.15,14.32 -1.18,-0.07 -2.36,-0.18 -3.53,-0.33 0.07,-6.1 -0.29,-12.22 0.13,-18.31 z"
       id="path79"
       inkscape:connector-curvature="0"
       style="fill:#ffffff" />
    <path
       fill="#1b75bb"
       opacity="1.00"
       d=" M 63.27 96.57 C 58.32 94.76 53.72 88.83 56.69 83.58 C 63.40 86.69 69.73 90.54 76.17 94.17 C 72.46 96.70 67.65 98.53 63.27 96.57 Z"
       id="path81"
       style="fill:#ffffff" />
  </g>
</svg>
